#!OML:ASF G:\JayActor3\Patient Classification 1\Patient 1\Session 5\male.ASF
:FULLY-SPECIFIED
:DEGREES
372
root 7.74294 16.6045 -5.69362 518.266 91.5474 520.432
lowerback 2.5752 -1.20224 -0.961981
upperback 2.79476 -1.56384 -1.02126
thorax 1.41891 -0.770284 -0.487065
lowerneck -9.59148 0.417979 2.30503
upperneck 10.2628 0.0936309 1.43023
head 4.65227 0.239163 0.0744293
rclavicle -1.03368e-014 7.15625e-015
rhumerus -33.3113 -7.5038 -86.6169
rradius 26.8178
rwrist 5.90761
rhand -17.2915 -4.4457
rfingers 7.12502
rthumb 8.95402 -34.2357
lclavicle -1.03368e-014 7.15625e-015
lhumerus -23.5507 -0.203107 85.6182
lradius 29.9208
lwrist 14.6147
lhand -17.5092 13.4236
lfingers 7.12502
lthumb 8.74394 43.2225
rfemur -27.7009 3.67905 21.833
rtibia 61.9503
rfoot -19.5981 -16.1678
rtoes -1.27302
lfemur -0.692647 11.2367 -23.0822
ltibia 23.6694
lfoot -18.5821 0.375859
ltoes -1.95669
373
root 7.88652 16.5997 -5.69627 522.022 91.3859 524.11
lowerback 2.58582 -1.24111 -1.14615
upperback 2.79994 -1.61793 -1.01018
thorax 1.42387 -0.800437 -0.371921
lowerneck -9.57558 0.437778 2.31608
upperneck 10.1699 0.12536 1.38274
head 4.62109 0.250419 0.059894
rclavicle 5.46658e-015 1.59028e-015
rhumerus -33.4728 -7.35731 -86.645
rradius 27.115
rwrist 5.62405
rhand -17.377 -4.33288
rfingers 7.12502
rthumb 8.87155 -34.1264
lclavicle 5.46658e-015 1.59028e-015
lhumerus -23.1124 -0.573863 85.6634
lradius 30.3618
lwrist 14.6373
lhand -17.4875 13.5492
lfingers 7.12502
lthumb 8.76496 43.3472
rfemur -28.4597 3.86723 21.7089
rtibia 60.3906
rfoot -19.8605 -16.2759
rtoes -1.36572
lfemur 0.148786 10.9845 -23.2603
ltibia 22.9801
lfoot -18.6981 0.739935
ltoes -1.89598
374
root 8.03068 16.5959 -5.69818 526.458 91.2326 528.465
lowerback 2.58833 -1.27775 -1.32605
upperback 2.80738 -1.66883 -0.997867
thorax 1.436 -0.828974 -0.258202
lowerneck -9.56784 0.455601 2.31887
upperneck 10.0781 0.15385 1.34754
head 4.59162 0.260618 0.0502956
rclavicle -4.87022e-015 -3.18055e-015
rhumerus -33.6152 -7.22435 -86.6722
rradius 27.386
rwrist 5.35615
rhand -17.4531 -4.26517
rfingers 7.12502
rthumb 8.79816 -34.0618
lclavicle -4.87022e-015 -3.18055e-015
lhumerus -22.6682 -0.909595 85.6946
lradius 30.7717
lwrist 14.6195
lhand -17.4601 13.7096
lfingers 7.12502
lthumb 8.79132 43.5065
rfemur -29.1619 4.02041 21.5856
rtibia 58.7486
rfoot -19.9832 -16.4069
rtoes -1.42514
lfemur 1.04471 10.7925 -23.4219
ltibia 22.181
lfoot -18.748 1.05566
ltoes -1.88499
375
root 8.17547 16.5925 -5.69945 531.411 91.0885 533.335
lowerback 2.58399 -1.3102 -1.49061
upperback 2.81497 -1.71382 -0.985146
thorax 1.45196 -0.854363 -0.152936
lowerneck -9.55617 0.469106 2.32419
upperneck 9.98457 0.175742 1.31751
head 4.56095 0.268019 0.0414277
rclavicle -1.635e-014 -7.55382e-015
rhumerus -33.7503 -7.11814 -86.6949
rradius 27.6368
rwrist 5.11344
rhand -17.5106 -4.25052
rfingers 7.12502
rthumb 8.74259 -34.0495
lclavicle -1.635e-014 -7.55382e-015
lhumerus -22.2328 -1.23927 85.7203
lradius 31.1625
lwrist 14.6149
lhand -17.4783 13.864
lfingers 7.12502
lthumb 8.77375 43.6616
rfemur -29.8045 4.13996 21.4736
rtibia 57.0353
rfoot -20.0031 -16.5616
rtoes -1.45934
lfemur 1.99301 10.6553 -23.5554
ltibia 21.2859
lfoot -18.7522 1.30923
ltoes -1.90881
376
root 8.32099 16.5899 -5.70011 536.908 90.9549 538.748
lowerback 2.57193 -1.33875 -1.63679
upperback 2.82101 -1.75327 -0.972703
thorax 1.47031 -0.876744 -0.0585056
lowerneck -9.54289 0.479421 2.33014
upperneck 9.89689 0.19224 1.29677
head 4.53182 0.273521 0.0349645
rclavicle 8.74653e-015 -7.95139e-016
rhumerus -33.88 -7.0437 -86.7112
rradius 27.8587
rwrist 4.89723
rhand -17.5357 -4.27531
rfingers 7.12502
rthumb 8.71845 -34.0753
lclavicle 8.74653e-015 -7.95139e-016
lhumerus -21.8081 -1.57515 85.7466
lradius 31.5309
lwrist 14.6754
lhand -17.5809 13.9715
lfingers 7.12502
lthumb 8.67475 43.7733
rfemur -30.3901 4.2369 21.3755
rtibia 55.2582
rfoot -19.9506 -16.7418
rtoes -1.47607
lfemur 2.99149 10.5539 -23.6587
ltibia 20.3014
lfoot -18.7148 1.51466
ltoes -1.98852
377
root 8.46712 16.5875 -5.70002 542.91 90.837 544.662
lowerback 2.55659 -1.36121 -1.76138
upperback 2.81962 -1.78451 -0.961331
thorax 1.48224 -0.894675 0.0226782
lowerneck -9.5194 0.486164 2.34005
upperneck 9.81403 0.203017 1.28267
head 4.50248 0.276885 0.0295182
rclavicle -1.74434e-014 -7.95139e-015
rhumerus -34.0095 -7.00631 -86.72
rradius 28.0427
rwrist 4.71755
rhand -17.5407 -4.31743
rfingers 7.12502
rthumb 8.71359 -34.1176
lclavicle -1.74434e-014 -7.95139e-015
lhumerus -21.4062 -1.91114 85.7712
lradius 31.8813
lwrist 14.7827
lhand -17.7377 14.0354
lfingers 7.12502
lthumb 8.52344 43.8434
rfemur -30.9202 4.32646 21.2946
rtibia 53.423
rfoot -19.8557 -16.9411
rtoes -1.45338
lfemur 4.03903 10.485 -23.7282
ltibia 19.2273
lfoot -18.6322 1.67575
ltoes -2.13724
378
root 8.61397 16.5854 -5.69909 549.207 90.7395 550.864
lowerback 2.53534 -1.37543 -1.86149
upperback 2.80664 -1.80474 -0.95384
thorax 1.4846 -0.906654 0.0861187
lowerneck -9.47993 0.491707 2.36246
upperneck 9.73756 0.210279 1.27568
head 4.47249 0.279562 0.0239758
rclavicle -1.32192e-014 -3.18055e-015
rhumerus -34.1434 -7.01023 -86.7253
rradius 28.1853
rwrist 4.5798
rhand -17.5444 -4.36146
rfingers 7.12502
rthumb 8.71002 -34.1618
lclavicle -1.32192e-014 -3.18055e-015
lhumerus -21.029 -2.26028 85.7922
lradius 32.2086
lwrist 14.9426
lhand -17.9229 14.0547
lfingers 7.12502
lthumb 8.3447 43.8699
rfemur -31.4017 4.42989 21.2292
rtibia 51.5325
rfoot -19.7446 -17.1543
rtoes -1.2708
lfemur 5.13299 10.4493 -23.7618
ltibia 18.0596
lfoot -18.4993 1.80091
ltoes -2.35051
379
root 8.76153 16.5836 -5.69724 555.427 90.6635 556.978
lowerback 2.50546 -1.38374 -1.93936
upperback 2.78452 -1.81698 -0.947491
thorax 1.48157 -0.914265 0.135797
lowerneck -9.43853 0.498944 2.38843
upperneck 9.67251 0.218661 1.27516
head 4.44572 0.283523 0.0199422
rclavicle 8.79622e-015 1.35174e-014
rhumerus -34.2695 -7.04477 -86.7272
rradius 28.2767
rwrist 4.49046
rhand -17.5391 -4.4102
rfingers 7.12502
rthumb 8.71515 -34.2103
lclavicle 8.79622e-015 1.35174e-014
lhumerus -20.6734 -2.58618 85.8045
lradius 32.5127
lwrist 15.1103
lhand -18.0979 14.0503
lfingers 7.12502
lthumb 8.17581 43.8722
rfemur -31.8398 4.55835 21.1768
rtibia 49.5904
rfoot -19.6293 -17.3816
rtoes -0.916277
lfemur 6.27244 10.4591 -23.7568
ltibia 16.7943
lfoot -18.3046 1.87789
ltoes -2.61591
380
root 8.90986 16.5819 -5.69455 561.442 90.6101 562.877
lowerback 2.46357 -1.38629 -2.00095
upperback 2.75476 -1.82131 -0.943361
thorax 1.47666 -0.917655 0.173837
lowerneck -9.40227 0.509406 2.42132
upperneck 9.62537 0.229912 1.27681
head 4.42536 0.289598 0.0156849
rclavicle -8.39865e-015 -5.1684e-015
rhumerus -34.3828 -7.10342 -86.7267
rradius 28.3153
rwrist 4.44891
rhand -17.5406 -4.44995
rfingers 7.12502
rthumb 8.71366 -34.2501
lclavicle -8.39865e-015 -5.1684e-015
lhumerus -20.3341 -2.87056 85.8036
lradius 32.7844
lwrist 15.2391
lhand -18.1907 14.0266
lfingers 7.12502
lthumb 8.08625 43.8519
rfemur -32.2346 4.7165 21.1286
rtibia 47.6025
rfoot -19.5007 -17.6158
rtoes -0.447013
lfemur 7.45907 10.5307 -23.7173
ltibia 15.4267
lfoot -18.0415 1.90204
ltoes -2.93964
381
root 9.05908 16.5802 -5.69091 567.42 90.5742 568.734
lowerback 2.41046 -1.38488 -2.0563
upperback 2.72004 -1.82017 -0.94147
thorax 1.47258 -0.918197 0.205832
lowerneck -9.3624 0.523153 2.46138
upperneck 9.58689 0.244824 1.27752
head 4.40712 0.297824 0.0102195
rclavicle -3.27995e-015 -5.1684e-015
rhumerus -34.4818 -7.18561 -86.7217
rradius 28.299
rwrist 4.4584
rhand -17.5541 -4.47958
rfingers 7.12502
rthumb 8.70063 -34.2803
lclavicle -3.27995e-015 -5.1684e-015
lhumerus -20.0123 -3.12085 85.7942
lradius 33.0225
lwrist 15.3508
lhand -18.2601 13.9937
lfingers 7.12502
lthumb 8.01932 43.8216
rfemur -32.5848 4.9011 21.0783
rtibia 45.5793
rfoot -19.3448 -17.8573
rtoes 0.00166618
lfemur 8.70546 10.6701 -23.6451
ltibia 13.9456
lfoot -17.697 1.85592
ltoes -3.29598
